<?xml version="1.0" encoding="UTF-8" standalone="no" ?>
<!DOCTYPE svg PUBLIC "-//W3C//DTD SVG 1.1//EN" "http://www.w3.org/Graphics/SVG/1.1/DTD/svg11.dtd">
<svg xmlns="http://www.w3.org/2000/svg" xmlns:xlink="http://www.w3.org/1999/xlink" version="1.1" width="32" height="32" viewBox="0 0 32 32" xml:space="preserve">
<desc>Created with Fabric.js 5.3.0</desc>
<defs>
</defs>
<g transform="matrix(1 0 0 1 15.7888198758 17.8136645963)" id="3T79bdy-5z16pY14kLpJs"  >
<path style="stroke: rgb(0,0,0); stroke-opacity: 0; stroke-width: 1; stroke-dasharray: none; stroke-linecap: round; stroke-dashoffset: 0; stroke-linejoin: round; stroke-miterlimit: 10; fill: none; fill-rule: nonzero; opacity: 1;" vector-effect="non-scaling-stroke"  transform=" translate(-15.7888198758, -17.8136645963)" d="M 15.787819875776394 17.81366459627329 L 15.789819875776393 17.81366459627329" stroke-linecap="round" />
</g>
<g transform="matrix(1 0 0 1 13.900621118 4.1619906832)" id="gObo873Y7i8UvtwnBCe1p"  >
<path style="stroke: rgb(0,0,0); stroke-opacity: 0; stroke-width: 1; stroke-dasharray: none; stroke-linecap: round; stroke-dashoffset: 0; stroke-linejoin: round; stroke-miterlimit: 10; fill: none; fill-rule: nonzero; opacity: 1;" vector-effect="non-scaling-stroke"  transform=" translate(-13.900621118, -4.1619906832)" d="M 13.576639751552792 4.099378881987577 Q 13.577639751552791 4.099378881987577 13.590062111801238 4.099378881987577 Q 13.602484472049685 4.099378881987577 13.664596273291922 4.099378881987577 Q 13.726708074534159 4.099378881987577 13.81366459627329 4.136645962732919 Q 13.90062111801242 4.173913043478261 13.975155279503102 4.186335403726708 Q 14.049689440993784 4.198757763975155 14.136645962732915 4.211180124223603 L 14.224602484472046 4.22460248447205" stroke-linecap="round" />
</g>
<g transform="matrix(1 0 0 1 15.2919254658 3.850931677)" id="MDfSt55nMw7DQSpCHAO_D"  >
<path style="stroke: rgb(0,0,0); stroke-opacity: 0; stroke-width: 1; stroke-dasharray: none; stroke-linecap: round; stroke-dashoffset: 0; stroke-linejoin: round; stroke-miterlimit: 10; fill: none; fill-rule: nonzero; opacity: 1;" vector-effect="non-scaling-stroke"  transform=" translate(-15.2919254658, -3.850931677)" d="M 18.945099378881984 4.895409937888199 Q 18.944099378881983 4.894409937888199 18.906832298136642 4.881987577639752 Q 18.8695652173913 4.869565217391304 18.782608695652172 4.832298136645962 Q 18.69565217391304 4.795031055900621 18.47204968944099 4.732919254658385 Q 18.24844720496894 4.670807453416149 17.7639751552795 4.596273291925465 Q 17.27950310559006 4.521739130434782 16.69565217391304 4.472049689440993 Q 16.111801242236023 4.422360248447204 15.503105590062109 4.3354037267080745 Q 14.894409937888195 4.248447204968944 14.173913043478258 4.099378881987578 Q 13.453416149068321 3.950310559006211 13.118012422360247 3.813664596273292 Q 12.782608695652172 3.6770186335403725 12.447204968944098 3.478260869565217 Q 12.111801242236023 3.2795031055900616 12.012422360248445 3.1801242236024843 Q 11.913043478260867 3.0807453416149064 11.776397515527949 2.944099378881987 L 11.63875155279503 2.806453416149068" stroke-linecap="round" />
</g>
<g transform="matrix(1 0 0 1 20.3100590062 9.5408726708)" id="I6gp46K7W4wyiXk1mFE7k"  >
<path style="stroke: rgb(0,0,0); stroke-opacity: 0; stroke-width: 1; stroke-dasharray: none; stroke-linecap: round; stroke-dashoffset: 0; stroke-linejoin: round; stroke-miterlimit: 10; fill: none; fill-rule: nonzero; opacity: 1;" vector-effect="non-scaling-stroke"  transform=" translate(-20.3100590062, -9.5408726708)" d="M 13.452416149068322 3.3798819875776394 Q 13.453416149068321 3.3788819875776395 13.565217391304346 3.366459627329192 Q 13.67701863354037 3.354037267080745 13.888198757763973 3.341614906832298 Q 14.099378881987576 3.3291925465838506 14.397515527950308 3.3291925465838506 Q 14.69565217391304 3.3291925465838506 15.09316770186335 3.3788819875776395 Q 15.490683229813662 3.4285714285714284 15.999999999999996 3.5155279503105588 Q 16.50931677018633 3.6024844720496887 16.944099378881983 3.677018633540372 Q 17.378881987577635 3.7515527950310554 17.85093167701863 3.8509316770186333 Q 18.322981366459626 3.950310559006211 18.819875776397513 4.037267080745341 Q 19.3167701863354 4.124223602484472 19.838509316770185 4.236024844720497 Q 20.360248447204967 4.3478260869565215 20.844720496894407 4.459627329192546 Q 21.329192546583847 4.571428571428571 21.86335403726708 4.683229813664596 Q 22.397515527950308 4.795031055900621 22.757763975155278 4.881987577639752 Q 23.118012422360245 4.968944099378882 23.291925465838506 5.0186335403726705 Q 23.465838509316768 5.068322981366459 23.86335403726708 5.204968944099379 Q 24.260869565217387 5.341614906832298 24.484472049689437 5.440993788819876 Q 24.708074534161486 5.540372670807453 24.89440993788819 5.6645962732919255 Q 25.0807453416149 5.788819875776397 25.279503105590056 5.975155279503105 Q 25.47826086956521 6.161490683229813 25.602484472049685 6.322981366459627 Q 25.72670807453416 6.48447204968944 25.838509316770182 6.658385093167701 Q 25.950310559006205 6.832298136645962 26.06211180124223 7.0807453416149055 Q 26.173913043478258 7.32919254658385 26.24844720496894 7.5527950310559 Q 26.322981366459622 7.7763975155279494 26.37267080745341 7.975155279503106 Q 26.422360248447198 8.173913043478262 26.496894409937884 8.496894409937887 Q 26.57142857142857 8.819875776397513 26.64596273291925 9.180124223602483 Q 26.720496894409933 9.540372670807454 26.77018633540372 9.888198757763975 Q 26.81987577639751 10.236024844720497 26.91925465838509 11.279503105590061 Q 27.01863354037267 12.322981366459626 27.01863354037267 12.39751552795031 Q 27.01863354037267 12.472049689440993 27.043478260869563 12.62111801242236 Q 27.068322981366457 12.770186335403725 27.105590062111798 13.1055900621118 Q 27.14285714285714 13.440993788819874 27.155279503105586 13.714285714285714 Q 27.167701863354033 13.987577639751553 27.167701863354033 14.198757763975156 Q 27.167701863354033 14.409937888198758 27.155279503105586 14.583850931677018 Q 27.14285714285714 14.757763975155278 27.118012422360245 14.894409937888197 Q 27.09316770186335 15.031055900621116 27.068322981366457 15.19254658385093 Q 27.043478260869563 15.354037267080745 27.00621118012422 15.46583850931677 Q 26.96894409937888 15.577639751552795 26.931677018633536 15.664596273291925 L 26.89340993788819 15.752552795031056" stroke-linecap="round" />
</g>
<g transform="matrix(1 0 0 1 12.9192546584 13.0936677019)" id="IZ07hPpWg6qjIc0A2HTQz"  >
<path style="stroke: rgb(0,0,0); stroke-opacity: 0; stroke-width: 1; stroke-dasharray: none; stroke-linecap: round; stroke-dashoffset: 0; stroke-linejoin: round; stroke-miterlimit: 10; fill: none; fill-rule: nonzero; opacity: 1;" vector-effect="non-scaling-stroke"  transform=" translate(-12.9192546584, -13.0936677019)" d="M 11.067322981366457 12.993788819875775 Q 11.068322981366457 12.993788819875775 11.14285714285714 12.993788819875775 Q 11.217391304347824 12.993788819875775 11.416149068322978 12.993788819875775 Q 11.614906832298132 12.993788819875775 11.776397515527947 13.018633540372669 Q 11.937888198757761 13.043478260869563 12.086956521739127 13.043478260869563 Q 12.236024844720493 13.043478260869563 12.322981366459624 13.055900621118012 Q 12.409937888198755 13.06832298136646 12.658385093167698 13.06832298136646 Q 12.906832298136642 13.06832298136646 13.05590062111801 13.06832298136646 Q 13.204968944099377 13.06832298136646 13.36645962732919 13.080745341614907 Q 13.527950310559003 13.093167701863354 13.677018633540369 13.105590062111801 Q 13.826086956521735 13.118012422360248 13.999999999999996 13.130434782608695 Q 14.173913043478258 13.142857142857142 14.472049689440992 13.167701863354036 L 14.771186335403724 13.19354658385093" stroke-linecap="round" />
</g>
<g transform="matrix(1 0 0 1 5.0678229814 10.9937888199)" id="4_2YRXfZWV-aSD3rtxPrN"  >
<path style="stroke: rgb(0,0,0); stroke-opacity: 0; stroke-width: 1; stroke-dasharray: none; stroke-linecap: round; stroke-dashoffset: 0; stroke-linejoin: round; stroke-miterlimit: 10; fill: none; fill-rule: nonzero; opacity: 1;" vector-effect="non-scaling-stroke"  transform=" translate(-5.0678229814, -10.9937888199)" d="M 4.682229813664595 9.06732298136646 Q 4.683229813664595 9.06832298136646 4.695652173913042 9.093167701863354 Q 4.708074534161489 9.118012422360248 4.757763975155278 9.254658385093167 Q 4.807453416149067 9.391304347826086 4.869565217391303 9.50310559006211 Q 4.931677018633539 9.614906832298136 4.968944099378881 9.68944099378882 Q 5.006211180124223 9.763975155279503 5.031055900621117 9.801242236024844 Q 5.055900621118011 9.838509316770185 5.068322981366458 9.888198757763975 Q 5.080745341614905 9.937888198757765 5.0931677018633525 10.04968944099379 Q 5.1055900621118 10.161490683229815 5.1428571428571415 10.48447204968944 Q 5.1801242236024825 10.807453416149066 5.204968944099377 11.130434782608694 Q 5.229813664596272 11.453416149068321 5.267080745341613 11.72670807453416 Q 5.304347826086954 12 5.341614906832296 12.211180124223603 Q 5.378881987577638 12.422360248447205 5.41614906832298 12.571428571428571 Q 5.453416149068322 12.720496894409937 5.453416149068322 12.782608695652174 Q 5.453416149068322 12.84472049689441 5.453416149068322 12.881987577639752 L 5.453416149068322 12.920254658385092" stroke-linecap="round" />
</g>
<g transform="matrix(1 0 0 1 0.3602484472 6.5093167702)" id="-cuvRMjDNMhTHwnpQtTt4"  >
<path style="stroke: rgb(0,0,0); stroke-width: 1; stroke-dasharray: none; stroke-linecap: butt; stroke-dashoffset: 0; stroke-linejoin: miter; stroke-miterlimit: 4; fill: rgb(255,255,255); fill-opacity: 0; fill-rule: nonzero; opacity: 1;" vector-effect="non-scaling-stroke"  transform=" translate(0, 0)" d="M 0 0" stroke-linecap="round" />
</g>
<g transform="matrix(1 0 0 1 0.3602484472 22.8819875776)" id="sF_v5_4wZMpAdesiB1IZo"  >
<path style="stroke: rgb(0,0,0); stroke-width: 1; stroke-dasharray: none; stroke-linecap: butt; stroke-dashoffset: 0; stroke-linejoin: miter; stroke-miterlimit: 4; fill: rgb(255,255,255); fill-opacity: 0; fill-rule: nonzero; opacity: 1;" vector-effect="non-scaling-stroke"  transform=" translate(0, 0)" d="M 0 0" stroke-linecap="round" />
</g>
<g transform="matrix(1 0 0 1 0.1614906832 14.0869565217)" id="3TLBMJGVNvQYT1C9ddU1i"  >
<path style="stroke: rgb(0,0,0); stroke-width: 1; stroke-dasharray: none; stroke-linecap: butt; stroke-dashoffset: 0; stroke-linejoin: miter; stroke-miterlimit: 4; fill: rgb(255,255,255); fill-opacity: 0; fill-rule: nonzero; opacity: 1;" vector-effect="non-scaling-stroke"  transform=" translate(0, 0)" d="M 0 0" stroke-linecap="round" />
</g>
<g transform="matrix(1.04042462 0 0 1.0983697007 16.0613771399 15.9933210394)" id="3QMnXqBVHejw5HxKwq0Nh"  >
<path style="stroke: rgb(0,0,0); stroke-opacity: 0; stroke-width: 1; stroke-dasharray: none; stroke-linecap: butt; stroke-dashoffset: 0; stroke-linejoin: miter; stroke-miterlimit: 4; fill: rgb(26,173,239); fill-rule: nonzero; opacity: 1;" vector-effect="non-scaling-stroke"  transform=" translate(0, 0)" d="M -15.03775 -6.36712 C -15.3656 -8.46779 -14.157070000000001 -10.513770000000001 -12.095580000000002 -11.34808 L -6.090160000000002 -13.77855 L -6.090160000000002 -13.77855 C -4.4039100000000015 -14.460999999999999 -2.509930000000002 -14.524809999999999 -0.7767600000000021 -13.957569999999999 L 12.002029999999998 -9.775269999999999 L 12.002029999999998 -9.775269999999999 C 13.159379999999999 -9.396489999999998 14.108799999999999 -8.595109999999998 14.638919999999999 -7.54956 C 15.169039999999999 -6.504009999999999 15.235829999999998 -5.301089999999999 14.82444 -4.208629999999999 L 12.215119999999999 2.720390000000001 L 12.215119999999999 2.720390000000001 C 11.616369999999998 4.310370000000001 10.44229 5.6479800000000004 8.901259999999999 6.495850000000001 L -4.031700000000001 13.611460000000001 L -4.031700000000001 13.611460000000001 C -5.664620000000001 14.50988 -7.661520000000001 14.583020000000001 -9.3628 13.806730000000002 C -11.06408 13.030440000000002 -12.24841 11.505710000000002 -12.52457 9.736180000000001 z" stroke-linecap="round" />
</g>
<g transform="matrix(2.875 0 0 2.875 21.3759671506 9.848826087)" id="2hRmpw8aAmG-g_5G-sXi6"  >
<path style="stroke: rgb(26,120,190); stroke-width: 0; stroke-dasharray: none; stroke-linecap: butt; stroke-dashoffset: 0; stroke-linejoin: miter; stroke-miterlimit: 4; fill: rgb(0,0,0); fill-rule: nonzero; opacity: 1;" vector-effect="non-scaling-stroke"  transform=" translate(0, 0)" d="M 0 -1.24224 C 0.68571 -1.24224 1.24224 -0.68572 1.24224 0 C 1.24224 0.68571 0.68572 1.24224 0 1.24224 C -0.68571 1.24224 -1.24224 0.68572 -1.24224 0 C -1.24224 -0.68571 -0.68572 -1.24224 0 -1.24224 z" stroke-linecap="round" />
</g>
</svg>